<svg width="80" height="81" viewBox="0 0 80 81" fill="none" xmlns="http://www.w3.org/2000/svg">
<path fill-rule="evenodd" clip-rule="evenodd" d="M76.4835 0.196417L76.4852 0.20738C76.8074 0.0744948 77.1689 0 77.5508 0C78.9033 0 80 0.934441 80.0024 2.0879L80.0024 2.09163L80.0024 2.09537C80.0023 2.1275 80.0014 2.15946 79.9996 2.19124H80.0024V3.66499V50.7194L80.0024 77.9308C80.0018 77.9309 80.0012 77.9309 80.0007 77.931C79.9536 79.081 78.9246 80 77.6622 80C77.5414 80 77.4228 79.9916 77.3069 79.9753L76.8614 79.8707C76.8153 79.8553 76.77 79.8386 76.7253 79.8206C76.7216 79.8258 76.7179 79.831 76.7142 79.8362L41 71.4488L41 50.7194V20.5788L45.3097 17.8189L76.4835 0.196417Z" fill="white"/>
<path fill-rule="evenodd" clip-rule="evenodd" d="M0.00271225 2.19124C0.0010643 2.16124 0.000156403 2.13107 3.8147e-06 2.10076V2.0825C0.00577164 0.931523 1.10116 0 2.45156 0C2.83344 0 3.19493 0.0744953 3.51715 0.207383L3.51892 0.19641L34.6927 17.8189L39.0023 20.5788V50.7194V71.4488L2.42326 80.0393C2.37697 79.965 2.32821 79.8921 2.2771 79.8206C1.99022 79.936 1.67332 80 1.34018 80C0.84169 80 0.379608 79.8567 3.8147e-06 79.6125V50.7194L-3.8147e-06 2.19124H0.00271225Z" fill="white"/>
<path d="M56.6642 22.4368C56.6642 19.9864 58.6506 18 61.101 18C63.5514 18 65.5378 19.9864 65.5378 22.4368V66.5632C65.5378 69.0136 63.5514 71 61.101 71C58.6506 71 56.6642 69.0136 56.6642 66.5632V22.4368Z" fill="url(#paint0_linear_16_139)"/>
<path d="M13.4789 22.4368C13.4789 19.9864 15.4654 18 17.9158 18C20.3662 18 22.3526 19.9864 22.3526 22.4368V66.5632C22.3526 69.0136 20.3662 71 17.9158 71C15.4654 71 13.4789 69.0136 13.4789 66.5632V22.4368Z" fill="url(#paint1_linear_16_139)"/>
<path d="M15.0599 23.1207C13.37 21.6264 13.458 19.3112 15.2566 17.9495C17.0551 16.5879 19.8831 16.6954 21.5731 18.1897L42.9751 37.1139C44.6651 38.6082 44.5771 40.9234 42.7785 42.285C40.98 43.6467 38.152 43.5391 36.462 42.0448L15.0599 23.1207Z" fill="url(#paint2_linear_16_139)"/>
<path d="M64.0062 22.7098C65.6596 21.1752 65.542 18.8273 63.7435 17.4656C61.945 16.1039 59.1467 16.2441 57.4932 17.7787L36.6841 37.0927C35.0306 38.6274 35.1483 40.9753 36.9468 42.337C38.7453 43.6986 41.5436 43.5584 43.197 42.0238L64.0062 22.7098Z" fill="url(#paint3_linear_16_139)"/>
<defs>
<linearGradient id="paint0_linear_16_139" x1="61.101" y1="18" x2="61.101" y2="71" gradientUnits="userSpaceOnUse">
<stop stop-color="#45803C"/>
<stop offset="1" stop-color="#A2DC58"/>
</linearGradient>
<linearGradient id="paint1_linear_16_139" x1="17.9158" y1="18" x2="17.9158" y2="71" gradientUnits="userSpaceOnUse">
<stop stop-color="#45803C"/>
<stop offset="1" stop-color="#A2DC58"/>
</linearGradient>
<linearGradient id="paint2_linear_16_139" x1="15.2566" y1="17.9495" x2="36.9952" y2="46.6634" gradientUnits="userSpaceOnUse">
<stop stop-color="#45803C"/>
<stop offset="1" stop-color="#A2DC58"/>
</linearGradient>
<linearGradient id="paint3_linear_16_139" x1="63.7435" y1="17.4656" x2="42.0104" y2="46.1707" gradientUnits="userSpaceOnUse">
<stop stop-color="#45803C"/>
<stop offset="1" stop-color="#A2DC58"/>
</linearGradient>
</defs>
</svg>
