<svg width="132" height="58" viewBox="0 0 132 58" fill="none" xmlns="http://www.w3.org/2000/svg">
<rect x="0.5" y="0.5" width="131" height="57" rx="28.5" fill="white" stroke="black"/>
<path d="M29.5 11L29.5 46" stroke="black" stroke-width="2"/>
<line x1="11" y1="28.4211" x2="47" y2="28.4211" stroke="black" stroke-width="2"/>
<path d="M70.4659 26H68.7045C68.6004 25.4934 68.4181 25.0483 68.1577 24.6648C67.902 24.2812 67.5895 23.9593 67.2202 23.6989C66.8556 23.4337 66.4508 23.2348 66.0057 23.1023C65.5606 22.9697 65.0966 22.9034 64.6136 22.9034C63.733 22.9034 62.9351 23.1259 62.2202 23.571C61.5099 24.0161 60.9441 24.6719 60.5227 25.5384C60.1061 26.4048 59.8977 27.4678 59.8977 28.7273C59.8977 29.9867 60.1061 31.0497 60.5227 31.9162C60.9441 32.7827 61.5099 33.4384 62.2202 33.8835C62.9351 34.3286 63.733 34.5511 64.6136 34.5511C65.0966 34.5511 65.5606 34.4848 66.0057 34.3523C66.4508 34.2197 66.8556 34.0232 67.2202 33.7628C67.5895 33.4976 67.902 33.1733 68.1577 32.7898C68.4181 32.4015 68.6004 31.9564 68.7045 31.4545H70.4659C70.3333 32.1979 70.0919 32.8632 69.7415 33.4503C69.3911 34.0374 68.9555 34.5369 68.4347 34.9489C67.9138 35.3561 67.3291 35.6662 66.6804 35.8793C66.0365 36.0923 65.3475 36.1989 64.6136 36.1989C63.3731 36.1989 62.2699 35.8958 61.304 35.2898C60.3381 34.6837 59.5781 33.822 59.0241 32.7045C58.4702 31.5871 58.1932 30.2614 58.1932 28.7273C58.1932 27.1932 58.4702 25.8674 59.0241 24.75C59.5781 23.6326 60.3381 22.7708 61.304 22.1648C62.2699 21.5587 63.3731 21.2557 64.6136 21.2557C65.3475 21.2557 66.0365 21.3622 66.6804 21.5753C67.3291 21.7884 67.9138 22.1009 68.4347 22.5128C68.9555 22.92 69.3911 23.4171 69.7415 24.0043C70.0919 24.5866 70.3333 25.2519 70.4659 26ZM73.0849 36V25.0909H74.7042V26.7386H74.8178C75.0167 26.1989 75.3765 25.7609 75.8974 25.4247C76.4182 25.0885 77.0053 24.9205 77.6587 24.9205C77.7818 24.9205 77.9357 24.9228 78.1204 24.9276C78.305 24.9323 78.4447 24.9394 78.5394 24.9489V26.6534C78.4826 26.6392 78.3524 26.6179 78.1488 26.5895C77.9499 26.5563 77.7392 26.5398 77.5167 26.5398C76.9864 26.5398 76.5129 26.651 76.0962 26.8736C75.6843 27.0914 75.3576 27.3944 75.1161 27.7827C74.8794 28.1662 74.761 28.6042 74.761 29.0966V36H73.0849ZM84.7681 36.2273C83.717 36.2273 82.8103 35.9953 82.0479 35.5312C81.2904 35.0625 80.7056 34.4091 80.2937 33.571C79.8865 32.7282 79.6829 31.7481 79.6829 30.6307C79.6829 29.5133 79.8865 28.5284 80.2937 27.6761C80.7056 26.8191 81.2785 26.1515 82.0124 25.6733C82.7511 25.1903 83.6128 24.9489 84.5977 24.9489C85.1658 24.9489 85.7269 25.0436 86.2809 25.233C86.8349 25.4223 87.3391 25.7301 87.7937 26.1562C88.2482 26.5777 88.6104 27.1364 88.8803 27.8324C89.1502 28.5284 89.2852 29.3854 89.2852 30.4034V31.1136H80.8761V29.6648H87.5806C87.5806 29.0492 87.4575 28.5 87.2113 28.017C86.9698 27.5341 86.6242 27.1529 86.1744 26.8736C85.7293 26.5942 85.2037 26.4545 84.5977 26.4545C83.93 26.4545 83.3524 26.6203 82.8647 26.9517C82.3817 27.2784 82.0101 27.7045 81.7496 28.2301C81.4892 28.7557 81.359 29.3191 81.359 29.9205V30.8864C81.359 31.7102 81.5011 32.4086 81.7852 32.9815C82.074 33.5497 82.4741 33.983 82.9854 34.2812C83.4968 34.5748 84.091 34.7216 84.7681 34.7216C85.2085 34.7216 85.6062 34.66 85.9613 34.5369C86.3211 34.4091 86.6313 34.2197 86.8917 33.9688C87.1521 33.7131 87.3533 33.3958 87.4954 33.017L89.1147 33.4716C88.9442 34.0208 88.6578 34.5038 88.2553 34.9205C87.8529 35.3324 87.3557 35.6544 86.7638 35.8864C86.172 36.1136 85.5067 36.2273 84.7681 36.2273ZM95.0451 36.2557C94.3538 36.2557 93.7264 36.1255 93.163 35.8651C92.5996 35.5999 92.1521 35.2188 91.8207 34.7216C91.4892 34.2197 91.3235 33.6136 91.3235 32.9034C91.3235 32.2784 91.4466 31.7718 91.6928 31.3835C91.939 30.9905 92.2681 30.6828 92.68 30.4602C93.092 30.2377 93.5465 30.072 94.0437 29.9631C94.5456 29.8494 95.0498 29.7595 95.5565 29.6932C96.2193 29.608 96.7567 29.544 97.1687 29.5014C97.5853 29.4541 97.8884 29.3759 98.0778 29.267C98.2719 29.1581 98.369 28.9687 98.369 28.6989V28.642C98.369 27.9413 98.1772 27.3968 97.7937 27.0085C97.4149 26.6203 96.8396 26.4261 96.0678 26.4261C95.2676 26.4261 94.6403 26.6013 94.1857 26.9517C93.7312 27.3021 93.4116 27.6761 93.2269 28.0739L91.636 27.5057C91.9201 26.8428 92.2989 26.3267 92.7724 25.9574C93.2506 25.5833 93.7714 25.3229 94.3349 25.1761C94.9031 25.0246 95.4618 24.9489 96.011 24.9489C96.3614 24.9489 96.7638 24.9915 97.2184 25.0767C97.6777 25.1572 98.1204 25.3253 98.5465 25.581C98.9774 25.8366 99.3349 26.2225 99.619 26.7386C99.9031 27.2547 100.045 27.946 100.045 28.8125V36H98.369V34.5227H98.2837C98.1701 34.7595 97.9807 35.0128 97.7156 35.2827C97.4504 35.5526 97.0977 35.7822 96.6573 35.9716C96.217 36.161 95.6796 36.2557 95.0451 36.2557ZM95.3008 34.75C95.9637 34.75 96.5224 34.6198 96.9769 34.3594C97.4362 34.099 97.7818 33.7628 98.0138 33.3509C98.2506 32.9389 98.369 32.5057 98.369 32.0511V30.517C98.2979 30.6023 98.1417 30.6804 97.9002 30.7514C97.6635 30.8177 97.3888 30.8769 97.0763 30.929C96.7686 30.9763 96.4679 31.0189 96.1744 31.0568C95.8855 31.09 95.6512 31.1184 95.4712 31.142C95.0356 31.1989 94.6284 31.2912 94.2496 31.419C93.8756 31.5421 93.5726 31.7292 93.3406 31.9801C93.1133 32.2263 92.9996 32.5625 92.9996 32.9886C92.9996 33.571 93.2151 34.0114 93.646 34.3097C94.0816 34.6032 94.6332 34.75 95.3008 34.75ZM107.849 25.0909V26.5114H102.195V25.0909H107.849ZM103.843 22.4773H105.519V32.875C105.519 33.3485 105.588 33.7036 105.725 33.9403C105.867 34.1723 106.047 34.3286 106.265 34.4091C106.487 34.4848 106.722 34.5227 106.968 34.5227C107.153 34.5227 107.304 34.5133 107.423 34.4943C107.541 34.4706 107.636 34.4517 107.707 34.4375L108.048 35.9432C107.934 35.9858 107.775 36.0284 107.572 36.071C107.368 36.1184 107.11 36.142 106.798 36.142C106.324 36.142 105.86 36.0402 105.406 35.8366C104.956 35.633 104.582 35.3229 104.283 34.9062C103.99 34.4896 103.843 33.964 103.843 33.3295V22.4773ZM114.827 36.2273C113.776 36.2273 112.869 35.9953 112.107 35.5312C111.349 35.0625 110.764 34.4091 110.352 33.571C109.945 32.7282 109.741 31.7481 109.741 30.6307C109.741 29.5133 109.945 28.5284 110.352 27.6761C110.764 26.8191 111.337 26.1515 112.071 25.6733C112.81 25.1903 113.671 24.9489 114.656 24.9489C115.224 24.9489 115.786 25.0436 116.339 25.233C116.893 25.4223 117.398 25.7301 117.852 26.1562C118.307 26.5777 118.669 27.1364 118.939 27.8324C119.209 28.5284 119.344 29.3854 119.344 30.4034V31.1136H110.935V29.6648H117.639C117.639 29.0492 117.516 28.5 117.27 28.017C117.028 27.5341 116.683 27.1529 116.233 26.8736C115.788 26.5942 115.262 26.4545 114.656 26.4545C113.989 26.4545 113.411 26.6203 112.923 26.9517C112.44 27.2784 112.069 27.7045 111.808 28.2301C111.548 28.7557 111.418 29.3191 111.418 29.9205V30.8864C111.418 31.7102 111.56 32.4086 111.844 32.9815C112.133 33.5497 112.533 33.983 113.044 34.2812C113.555 34.5748 114.15 34.7216 114.827 34.7216C115.267 34.7216 115.665 34.66 116.02 34.5369C116.38 34.4091 116.69 34.2197 116.95 33.9688C117.211 33.7131 117.412 33.3958 117.554 33.017L119.173 33.4716C119.003 34.0208 118.716 34.5038 118.314 34.9205C117.911 35.3324 117.414 35.6544 116.822 35.8864C116.231 36.1136 115.565 36.2273 114.827 36.2273Z" fill="black"/>
</svg>
